<svg width="77" height="88" viewBox="0 0 77 88" fill="none" xmlns="http://www.w3.org/2000/svg">
<path fill-rule="evenodd" clip-rule="evenodd" d="M65.2166 19.7044C60.151 17.365 54.8119 15.7188 49.3344 14.7831C48.5876 16.1383 47.9025 17.5261 47.2981 18.9462C41.4703 18.0746 35.5309 18.0746 29.6992 18.9462C29.0794 17.5261 28.3981 16.1383 27.6513 14.7991C22.1545 15.7352 16.8155 17.381 11.7498 19.7208C1.68 34.6788 -1.03753 49.2816 0.328975 63.6585C6.22226 68.0312 12.8122 71.3552 19.8179 73.4851C21.3923 71.3552 22.7896 69.0803 23.9829 66.708C21.708 65.8529 19.5024 64.8042 17.4045 63.5455C17.9626 63.1424 18.5015 62.7388 19.025 62.2868C31.3659 68.1282 45.6313 68.1282 57.9761 62.2868C58.4996 62.7228 59.0385 63.1424 59.5774 63.5455C57.4834 64.7881 55.2739 65.8529 53.0028 66.708C54.2115 69.0803 55.5933 71.3392 57.1639 73.4691C64.1696 71.3392 70.7597 68.0152 76.653 63.6425H76.6721C78.2734 46.9903 73.9392 32.5325 65.2166 19.7044ZM25.7074 54.8129C21.9081 54.8129 18.7787 51.3114 18.7787 47.0517C18.7787 42.7919 21.8311 39.2904 25.7074 39.2904C29.5836 39.2904 32.6939 42.7919 32.6323 47.0517C32.6323 51.3114 29.5644 54.8129 25.7074 54.8129ZM51.2822 54.8129C47.4829 54.8129 44.3534 51.3114 44.3534 47.0517C44.3534 42.7919 47.4213 39.2904 51.2822 39.2904C55.1392 39.2904 58.2686 42.7919 58.207 47.0517C58.207 51.3114 55.1392 54.8129 51.2822 54.8129Z" fill="white"/>
</svg>
